<svg width="507" height="507" viewBox="0 0 507 507" fill="none" xmlns="http://www.w3.org/2000/svg">
<path opacity="0.9" d="M253.403 497.806C388.383 497.806 497.805 388.383 497.805 253.403C497.805 118.423 388.383 9 253.403 9C118.423 9 9 118.423 9 253.403C9 388.383 118.423 497.806 253.403 497.806Z" fill="#6A4DFF" stroke="black" stroke-width="18"></path>
<path d="M253.403 3.40283C391.475 3.40283 503.403 115.331 503.403 253.402C503.403 391.474 391.475 503.403 253.403 503.403C115.332 503.403 3.40308 391.474 3.40308 253.402C3.40308 115.331 115.332 3.40283 253.403 3.40283ZM251.253 11.4673C118.526 11.4673 10.9299 119.063 10.9299 251.79C10.9299 384.516 118.526 492.112 251.253 492.112C383.979 492.112 491.575 384.516 491.575 251.79C491.575 119.063 383.979 11.4673 251.253 11.4673Z" fill="black"></path>
<path fill-rule="evenodd" clip-rule="evenodd" d="M262.615 153.582C297.852 153.582 334.298 180.952 347.214 198.418C362.15 218.614 373.932 315.564 368.405 348.462C362.878 381.36 335.423 417.216 287.764 417.216C240.104 417.216 211.1 411.333 209.937 402.788C209.162 397.092 198.683 378.39 178.502 346.682C157.862 340.864 147.501 331.007 147.419 317.11C147.34 303.214 152.87 293.738 164.011 288.681C160.039 233.839 163.055 199.279 173.059 185C188.067 163.583 227.378 153.582 262.615 153.582Z" fill="#AE6434"></path>
<path fill-rule="evenodd" clip-rule="evenodd" d="M238.856 100.463C243.595 94.8743 251.954 100.157 251.765 106.264C253.657 106.777 255.888 108.548 256.749 110.856C258.612 110.736 260.489 111.107 262.181 112.075L262.537 111.636C268.398 104.465 276.155 98.3103 284.159 103.591C286.338 105.029 287.313 107.403 286.833 109.979L286.795 110.16L286.973 109.366C287.154 108.61 286.884 110.122 286.783 110.442L286.77 110.478C286.558 111.016 286.348 111.287 286.156 111.695C294.35 105.861 306.828 109.275 300.254 120.569L302.927 119.523C312.178 115.941 323.679 112.094 332.111 118.535C335.881 122.169 331.698 127.014 327.857 128.189L328.516 128.078C335.887 126.824 351.263 123.723 353.46 133.338C354.25 136.798 351.947 139.326 349.04 140.719C355.19 140.696 361.256 141.712 366.579 144.72C371.641 148.325 367.549 154.291 362.255 154.031C363.896 156.065 364.441 159.508 362.856 161.705C365.864 162.496 368.641 163.513 371.199 165.101L371.902 165.191C377.016 165.83 382.851 166.211 385.663 171.244C389.804 182.164 375.06 181.73 368.733 177.894C369.108 178.506 369.386 179.173 369.543 179.887L371.594 180.463C379.329 182.62 388.085 185.001 393.065 191.526C395.348 195.281 392.172 201.661 387.397 200.522C400.333 206.695 395.375 222.957 382.724 214.497C382.133 215.046 381.414 215.453 380.66 215.634L383.33 217.084C390.109 220.804 398.263 225.896 396.847 234.34C395.501 238.81 389.314 237.993 386.17 236.283C391.664 241.016 396.848 246.142 401.557 251.684L402.86 253.238C406.523 257.637 412.894 265.735 405.992 269.966C397.484 274.305 393.243 261.491 388.294 256.916C392.251 266.247 379.388 272.753 374.898 263.356C374.143 263.489 373.385 263.502 372.642 263.402C376.513 267.514 386.983 295.648 373.96 289.48C371.886 287.28 370.066 284.877 368.394 282.354C370.484 298.474 372.013 314.67 373.001 330.877L373.354 336.753C373.713 342.846 373.986 348.966 373.303 355.04C372.514 362.111 370.485 368.746 367.414 375.152C364.583 381.06 360.934 386.532 356.758 391.564C354.524 394.256 352.153 396.875 349.237 398.845C346.915 400.414 344.203 401.445 341.591 402.441C337.34 406.694 331.885 409.909 326.554 412.478C317.767 416.701 308.241 419.032 298.603 420.202C288.749 421.388 278.795 421.103 269.02 419.405C259.681 417.789 249.671 413.653 243.918 405.774C243.422 405.096 244.346 404.456 244.954 404.736C261.648 412.478 280.408 414.499 298.603 412.055C307.092 410.917 315.445 408.566 323.197 404.915C329.738 401.838 335.254 397.359 341.125 393.305C342.267 391.781 343.421 390.282 344.737 388.889L346.791 386.732C348.326 385.11 349.833 383.468 351.204 381.695C355.436 376.228 358.941 370.028 361.257 363.504C365.76 350.806 364.542 337.021 363.747 323.787L363.677 322.621C362.858 308.467 361.523 294.362 359.675 280.307C358.906 274.458 358.05 268.619 357.113 262.793C355.611 260.345 354.008 257.976 352.213 255.757C353.674 261.446 348.615 269.355 342.413 265.599C335.31 259.515 335.653 249.694 329.701 242.244C323.53 232.692 280.953 214.115 268.295 211.506C270.334 214.479 274.06 216.55 274.928 220.059C290.495 233.842 265.119 241.18 257.196 221.536C257.371 228.077 258.033 234.559 259.483 240.943C261.598 246.804 263.258 263.792 252.655 258.666C247.581 260.135 243.71 255.803 243.074 250.916C239.407 261.961 242.875 279.607 236.151 287.748C234.09 289.889 230.905 288.463 229.832 286.018C223.616 284.387 224.146 277.123 223.391 271.924C217.721 292.646 210.625 307.03 209.646 328.647C214.035 334.907 204.41 339.509 200.281 334.493C194.483 326.1 199.828 314.626 201.192 305.437C199.562 305.353 197.948 304.628 196.601 303.043C195.868 305.927 196.289 309.725 196.537 312.853C192.86 327.255 178.885 318.03 179.462 306.347C178.859 309.643 178.401 312.973 178.112 316.327C180.811 319.439 182.811 323.164 183.995 327.118C184.846 329.974 181.947 331.687 179.737 331.272C178.559 335.296 173.455 338.199 170.097 334.354C166.779 330.991 166.202 326.13 165.937 321.291C165.476 320.799 165.194 320.155 165.24 319.374C165.283 318.641 165.463 318.019 165.748 317.496C165.693 316.507 165.621 315.537 165.514 314.598C162.945 322.605 164.616 330.996 164.84 339.197C169.378 341.757 174.557 342.851 179.759 343.932L180.514 344.089C182.121 344.424 182.629 346.824 181.419 347.833C184.64 350.992 187.421 354.76 190.132 358.237C193.734 362.848 197.177 367.643 200.527 372.448L202.493 375.271C208.237 383.469 216.178 394.575 212.623 404.673C212.138 406.06 210.115 406.558 209.327 405.103C206.739 400.313 205.292 395.04 202.836 390.196C200.422 385.444 197.419 381.041 194.439 376.638L192.72 374.086C189.859 369.825 187.025 365.518 184.398 361.128L182.569 358.089C180.849 355.219 179.149 352.253 177.882 349.17C173.37 350.259 168.65 349.477 164.322 347.592L164.267 347.893L164.157 348.435C163.539 351.042 159.952 352.824 157.659 351.119C152.171 346.973 149.938 340.802 149.355 334.205C148.25 332.342 147.312 330.374 146.547 328.337C146.187 332.401 144.623 336.34 139.802 336.217C131.438 335.53 130.617 327.613 132.879 319.739C122.977 322.77 121.816 308.736 124.941 301.341C123.78 300.993 122.706 300.3 122.091 299.367L121.578 300.269C119.675 303.572 117.517 306.777 114.511 308.491C110.31 310.885 104.202 307.92 104.481 302.647C105.381 294.056 112.896 287.511 117.471 280.627C116.656 280.741 115.81 280.712 114.979 280.557C105.835 285.668 101.47 273.637 104.691 266.667C107.051 260.405 111.323 255.02 115.903 250.272L114.56 251.075C112.138 252.504 109.437 253.884 106.774 253.324C89.3538 264.794 83.636 245.502 103.184 239.473L103.178 239.383C101.216 237.487 100.365 234.487 101.89 231.489C94.7194 234.012 84.4826 228.302 90.8035 220.497C94.9257 216.608 99.7888 213.261 105.181 211.509C104.912 210.078 104.825 208.62 104.936 207.154L104.615 207.198C101.211 207.689 97.0136 209.082 94.915 205.408C93.8503 203.559 93.9753 200.511 95.72 199.073C101.73 194.121 108.586 190.003 116.034 188.334C116.307 187.425 116.592 186.522 116.894 185.622C110.54 185.505 103.406 177.048 110.705 172.256C117.12 168.981 123.73 166.873 130.974 167.069C126.727 162.872 129.234 155.266 134.881 154.096C131.184 146.203 140.321 142.132 147.136 143.377C146.886 139.87 148.759 135.962 152.364 135.082C150.472 123.986 162.197 125.036 169.542 127.666C167.082 123.389 169.611 118.357 173.95 116.857C181.057 115.245 187.855 122.028 193.267 126.188C191.421 121.848 192.978 117.847 197.373 116.117C201.899 114.343 206.776 117.773 210.553 120.104C212.608 117.52 216.114 116.676 219.259 116.837C219.596 115.866 220.089 115.057 220.722 114.416C220.704 108.435 230.865 105.148 234.412 110.718C235.015 106.844 236.606 103.118 238.856 100.463ZM365.985 208.942L366.103 209.586C366.253 209.719 366.394 209.86 366.539 209.996C366.991 210.104 367.429 210.217 367.843 210.332C367.239 209.843 366.617 209.39 365.985 208.942ZM373.829 193.246L373.691 193.437C373.667 193.469 373.644 193.5 373.618 193.53C374.002 193.676 374.384 193.824 374.764 193.977L375.334 194.211L375.535 194.3C374.969 193.944 374.401 193.591 373.829 193.246ZM282.357 114.23L282.015 114.316C281.906 114.343 281.802 114.367 281.708 114.39C281.673 114.399 281.639 114.402 281.608 114.415L281.698 114.396C281.536 114.52 281.323 114.665 281.146 114.782C281.32 114.768 281.493 114.751 281.667 114.741C281.895 114.57 282.126 114.4 282.357 114.23Z" fill="black"></path>
<path fill-rule="evenodd" clip-rule="evenodd" d="M260.543 345.459C267.336 341.369 292.722 344.368 312.665 345.459C328.502 346.326 339.814 344.608 343.434 347.044C351.613 352.55 347.64 379.17 333.546 382.811C319.452 386.452 267.205 391.536 258.197 382.811C249.188 374.085 248.357 352.797 260.543 345.459Z" fill="white"></path>
<path fill-rule="evenodd" clip-rule="evenodd" d="M269.341 338.418C280.002 337.124 290.335 340.388 300.756 342.033C306.259 342.901 311.768 343.55 317.336 343.79C318.456 343.84 319.577 343.867 320.698 343.891C320.802 342.904 321.355 341.999 322.551 341.456C325.003 340.344 326.966 339.842 329.659 339.949C332.123 340.047 334.597 340.301 337.024 340.745C341.431 341.553 345.858 343.386 349.082 346.572C356.542 353.943 355.407 365.784 349.643 373.813C337.731 390.403 315.993 391.173 297.376 390.957L295.657 390.934C278.705 390.692 254.451 393.219 246.75 373.932C243.917 366.839 244.31 358.619 247.778 351.816C251.915 343.703 260.621 339.477 269.341 338.418ZM322.294 366.042L322.141 366.048C314.326 366.348 306.511 366.561 298.691 366.699C298.925 368.707 299.164 370.717 299.437 372.72C299.651 374.297 299.881 375.873 300.12 377.445C300.221 378.111 300.592 379.146 300.487 379.806L300.449 380.066C300.85 380.248 301.215 380.541 301.486 380.966C301.58 381.112 301.649 381.261 301.717 381.407C307.788 381.455 314.322 381.338 320.511 380.234L320.524 380.1C320.636 379.309 320.966 378.776 321.402 378.412C321.837 375.89 321.797 373.203 321.966 370.702C322.071 369.148 322.184 367.595 322.294 366.042ZM292.718 366.806C287.085 366.901 281.449 366.975 275.816 366.906L273.259 366.867C273.799 369.764 274.387 372.65 274.876 375.567C275.384 378.606 272.71 380.538 270.394 380.46C270.655 380.503 270.914 380.546 271.173 380.584C278.408 381.607 285.919 381.335 293.26 381.327C292.866 379.022 293.025 376.421 292.966 374.497L292.954 374.198C292.842 371.733 292.764 369.269 292.718 366.806ZM254.452 366.274C254.648 367.78 255.029 369.254 255.597 370.627C258.002 376.425 263.515 379.132 269.349 380.271C268.336 379.922 267.532 379.082 267.329 377.644C266.824 374.068 266.642 370.432 266.628 366.801C262.563 366.763 258.471 366.677 254.452 366.274ZM343.494 365.036C340.6 365.719 337.236 365.406 334.397 365.535C331.736 365.656 329.074 365.76 326.414 365.868C326.54 367.685 326.662 369.5 326.795 371.315C326.966 373.662 326.982 376.141 327.431 378.477C332.786 376.65 337.583 373.718 341.182 369.033C342.079 367.865 342.882 366.496 343.494 365.036ZM268.118 347.932C263.3 349.073 258.739 351.483 256.289 355.892C254.835 358.508 254.195 361.608 254.318 364.664C258.39 364.19 262.532 364.01 266.655 363.862C266.669 363.119 266.686 362.378 266.708 361.638L266.771 359.742C266.883 356.124 266.94 351.582 268.118 347.932ZM293.055 348.373L290.935 348.135C285.043 347.464 279.155 346.759 273.263 347.163C272.411 347.222 271.545 347.315 270.678 347.442C271.72 351.2 271.632 355.613 272.067 359.332C272.235 360.771 272.448 362.197 272.683 363.618L273.705 363.57C280.026 363.228 286.354 363.017 292.681 362.766C292.68 361.578 292.687 360.39 292.705 359.201L292.729 358.011C292.8 354.975 292.605 351.554 293.055 348.373ZM322.639 347.891C316.468 348.887 310.091 349.099 304.031 349.107C301.609 349.11 299.19 348.96 296.772 348.747C296.929 350.034 297.011 351.337 297.13 352.606C297.368 355.173 297.642 357.734 297.938 360.293L298.202 362.533C305.979 362.18 313.755 361.8 321.529 361.405L322.626 361.345L322.934 357.041C323.143 354.172 323.373 351.303 323.698 348.445L323.454 348.357C323.168 348.24 322.896 348.077 322.639 347.891ZM325.318 348.959C325.658 353.017 325.846 357.093 326.096 361.157L331.221 360.883C332.075 360.837 332.929 360.789 333.783 360.74C337.105 360.549 341.373 359.543 344.656 360.482C344.906 357.497 344.053 354.589 341.359 352.583C336.63 349.061 330.608 350.315 325.318 348.959ZM307.808 312.682C315.44 308.312 334.587 303.844 335.801 317.579C336.358 323.9 331.659 329.136 326.173 331.473L325.967 331.559C320.82 333.675 311.699 336.064 307.245 331.477C303.539 327.658 308.456 320.812 313.061 323.94C315.428 325.547 320.41 324.363 323.051 323.598L323.217 323.55C326.067 322.712 329.866 320.032 328.688 316.522C327.645 313.418 323.207 312.85 320.428 312.75C316.279 312.601 312.242 313.564 308.132 313.877C307.481 313.928 307.28 312.985 307.808 312.682ZM339.422 290.598C349.78 290.112 356.223 301.422 353.841 310.689C353.429 312.288 351.641 313.857 349.914 313.677L349.479 313.638C349.258 313.617 349.037 313.589 348.832 313.532C347.192 313.078 345.724 311.373 345.842 309.605L345.874 309.09C346.116 304.713 345.641 299.67 340.439 298.609C336.027 297.71 333.563 301.957 333.511 305.866C333.501 306.56 332.722 307.045 332.108 306.672C328.918 304.731 328.365 300.869 329.584 297.544C331.128 293.33 334.992 290.804 339.422 290.598ZM262.554 293.023C270.092 290.508 278.224 294.527 281.874 301.19C283.154 301.561 284.433 302.548 284.255 304.059C283.998 306.234 283.612 307.604 282.103 309.253C279.746 311.831 275.33 310.513 274.35 307.338L274.309 307.195C273.195 303.091 268.678 300.383 264.562 301.82C259.756 303.498 259.895 308.575 256.523 311.533C256.127 311.88 255.652 311.936 255.176 311.706C251.595 309.975 252.238 304.766 253.516 301.785C255.19 297.873 258.445 294.393 262.554 293.023ZM252.288 270.133C258.396 263.9 274.324 257.87 278.502 269.378C279.298 271.571 277.604 274.527 275.321 274.981C271.584 275.725 268.268 274.102 264.555 274.393C261.55 274.63 258.414 275.635 256.011 277.497C249.356 282.654 247.892 291.376 243.255 297.939C243.029 298.259 242.59 298.124 242.549 297.748C241.493 288.192 245.598 276.959 252.288 270.133ZM331.949 263.998C336.003 262.566 340.592 262.688 344.667 263.958C348.771 265.238 352.54 267.669 355.442 270.844C356.759 272.285 357.979 273.877 358.956 275.57C359.476 276.467 360.022 278.321 360.612 279.425C363.804 281.268 365.17 285.47 362.311 288.458L362.182 288.589L361.8 288.969C360.263 290.49 357.946 291.148 355.849 290.541C351.154 289.182 350.584 285.486 348.959 281.561C347.885 278.97 346.046 276.676 343.817 274.992C338.548 271.012 329.908 269.743 323.564 271.619C323.227 271.719 322.83 271.289 323.07 270.976C324.272 269.419 324.965 268.141 326.575 266.885C328.208 265.61 329.991 264.689 331.949 263.998Z" fill="black"></path>
</svg>